<?xml version="1.0" encoding="UTF-8" standalone="no"?>
<svg
   version="1.1"
   id="Layer_1"
   x="0px"
   y="0px"
   width="138.584"
   height="160"
   viewBox="0 0 138.584 160"
   enable-background="new 0 0 192 192"
   xml:space="preserve"
   sodipodi:docname="chartjs-logo.svg"
   inkscape:version="1.1.2 (b8e25be833, 2022-02-05)"
   xmlns:inkscape="http://www.inkscape.org/namespaces/inkscape"
   xmlns:sodipodi="http://sodipodi.sourceforge.net/DTD/sodipodi-0.dtd"
   xmlns="http://www.w3.org/2000/svg"
   xmlns:svg="http://www.w3.org/2000/svg"><defs
   id="defs659" /><sodipodi:namedview
   id="namedview657"
   pagecolor="#ffffff"
   bordercolor="#666666"
   borderopacity="1.0"
   inkscape:pageshadow="2"
   inkscape:pageopacity="0.0"
   inkscape:pagecheckerboard="0"
   showgrid="false"
   fit-margin-top="0"
   fit-margin-left="0"
   fit-margin-right="0"
   fit-margin-bottom="0"
   inkscape:zoom="6.0833333"
   inkscape:cx="69.369863"
   inkscape:cy="80.054795"
   inkscape:window-width="2560"
   inkscape:window-height="1377"
   inkscape:window-x="-8"
   inkscape:window-y="-8"
   inkscape:window-maximized="1"
   inkscape:current-layer="Layer_1" />
<path
   fill="#36a2eb"
   d="m 134.563,80.556 c -22.368,0.439 -17.709,14.599 -33.473,18.18 -16.014,3.638 -18.542,-39.111 -34.552,-39.111 -16.012,0 -19.559,41.526 -39.608,70.034 l -0.572,0.807 42.985,24.813 65.22,-37.651 z"
   id="path648" />
<path
   fill="#ffce56"
   d="m 134.563,79.267 c -7.488,-9.61 -12.567,-20.658 -23.494,-20.658 -19.337,0 -14.249,31.545 -35.62,31.545 -21.373,0 -23.62,-33.931 -47.832,-2.035 -7.715,10.163 -13.925,21.495 -18.803,32.218 l 60.529,34.943 65.22,-37.651 z"
   id="path650" />
<path
   opacity="0.8"
   fill="#fe6184"
   d="m 4.121,92.334 c 7.338,-20.321 10.505,-36.779 24.514,-36.779 21.371,0 26.458,60.039 44.779,53.931 18.318,-6.105 16.282,-38.669 44.779,-38.669 5.424,0 10.962,3.323 16.371,8.698 v 38.113 L 69.344,155.279 4.122,117.628 V 92.334 Z"
   id="path652" />
<path
   fill="#e7e9ed"
   d="M 69.292,160 0,120.001 V 40 L 69.292,0 138.584,40 v 80 z M 8.141,115.301 69.292,150.602 130.443,115.301 V 44.7 L 69.292,9.399 8.141,44.7 Z"
   id="path654" />
</svg>
