<?xml version="1.0" encoding="UTF-8" standalone="no"?>
<!-- Created with Inkscape (http://www.inkscape.org/) -->

<svg
   width="35.766376mm"
   height="32.75013mm"
   viewBox="0 0 35.766376 32.75013"
   version="1.1"
   id="svg5"
   inkscape:version="1.1.2 (b8e25be833, 2022-02-05)"
   sodipodi:docname="create-react-app.svg"
   xmlns:inkscape="http://www.inkscape.org/namespaces/inkscape"
   xmlns:sodipodi="http://sodipodi.sourceforge.net/DTD/sodipodi-0.dtd"
   xmlns="http://www.w3.org/2000/svg"
   xmlns:svg="http://www.w3.org/2000/svg">
  <sodipodi:namedview
     id="namedview7"
     pagecolor="#ffffff"
     bordercolor="#666666"
     borderopacity="1.0"
     inkscape:pageshadow="2"
     inkscape:pageopacity="0.0"
     inkscape:pagecheckerboard="0"
     inkscape:document-units="mm"
     showgrid="false"
     fit-margin-top="0"
     fit-margin-left="0"
     fit-margin-right="0"
     fit-margin-bottom="0"
     inkscape:zoom="0.77771465"
     inkscape:cx="221.16081"
     inkscape:cy="-282.8801"
     inkscape:window-width="2560"
     inkscape:window-height="1377"
     inkscape:window-x="-8"
     inkscape:window-y="-8"
     inkscape:window-maximized="1"
     inkscape:current-layer="layer1" />
  <defs
     id="defs2">
    <style
       id="style9">.cls-1{fill:#09d3ac}</style>
  </defs>
  <g
     inkscape:label="Слой 1"
     inkscape:groupmode="layer"
     id="layer1"
     transform="translate(-46.755988,-223.13009)">
    <path
       d="m 79.421446,237.78536 c 0,-1.82298 -2.145771,-3.43958 -5.445125,-4.42648 0.79375,-3.35227 0.447146,-6.01927 -1.132417,-6.9215 a 2.5267708,2.5267708 0 0 0 -1.267354,-0.3175 c -1.473729,0 -3.336396,1.02923 -5.217583,2.80988 -1.881188,-1.76742 -3.738563,-2.79136 -5.209646,-2.79136 a 2.5029583,2.5029583 0 0 0 -1.285875,0.3228 c -1.571625,0.90487 -1.897062,3.556 -1.113896,6.89239 -3.283479,0.98161 -5.418666,2.58498 -5.423958,4.40002 -0.0053,1.81504 2.148417,3.43959 5.447771,4.42384 -0.79375,3.35491 -0.449792,6.01927 1.132416,6.9215 a 2.4897292,2.4897292 0 0 0 1.264709,0.3175 c 1.476375,0 3.339041,-1.02923 5.220229,-2.80988 1.878542,1.76742 3.735917,2.79136 5.209646,2.79136 a 2.5373542,2.5373542 0 0 0 1.285875,-0.3228 c 1.571625,-0.90487 1.894416,-3.556 1.113896,-6.87916 3.283479,-0.99484 5.418666,-2.59821 5.421312,-4.41061 z m -11.850687,-8.25764 c 2.166937,-1.9394 3.521604,-2.14842 4.003145,-2.14842 v 0 a 1.2461875,1.2461875 0 0 1 0.640292,0.15346 c 0.756708,0.43127 1.058333,1.95262 0.817563,3.96875 a 15.009812,15.009812 0 0 1 -0.264584,1.53194 25.849792,25.849792 0 0 0 -3.328458,-0.54769 26.053521,26.053521 0 0 0 -2.180167,-2.667 c 0.0979,-0.0979 0.203729,-0.19579 0.312209,-0.29104 z m -6.559021,9.75783 c 0.206375,0.39688 0.425979,0.79375 0.653521,1.19327 0.227541,0.39952 0.465666,0.80433 0.73025,1.20386 -0.717021,-0.10319 -1.412875,-0.23284 -2.074334,-0.3863 0.185209,-0.67204 0.420688,-1.3335 0.690563,-2.01083 z m -0.732896,-5.03767 c 0.669396,-0.1561 1.370542,-0.28575 2.098146,-0.38629 -0.264584,0.39159 -0.492125,0.79375 -0.73025,1.21444 -0.238125,0.42069 -0.447146,0.79375 -0.650875,1.19592 q -0.404813,-1.03188 -0.717021,-2.02407 z m 1.378479,3.52955 q 0.492125,-1.03982 1.082146,-2.07963 c 0.396875,-0.69321 0.822854,-1.3679 1.262062,-2.01348 0.769938,-0.0582 1.563688,-0.09 2.38125,-0.0873 0.817563,0.003 1.5875,0.0317 2.352146,0.0926 0.439209,0.64029 0.859896,1.32292 1.256771,1.99761 0.396875,0.67468 0.762,1.38112 1.090083,2.07168 -0.325437,0.69321 -0.687916,1.38907 -1.0795,2.07698 -0.391583,0.68792 -0.822854,1.37054 -1.262062,2.01613 -0.769938,0.0608 -1.563688,0.09 -2.38125,0.09 -0.817563,0 -1.5875,-0.0344 -2.352146,-0.0952 -0.439208,-0.64029 -0.862542,-1.30704 -1.259417,-1.99761 -0.396875,-0.69056 -0.74877,-1.38112 -1.0795,-2.07168 z m 8.694208,-3.9079 c 0.719667,0.10054 1.415521,0.23019 2.074334,0.38365 -0.195792,0.65352 -0.428625,1.32291 -0.6985,1.9976 -0.209021,-0.39688 -0.425979,-0.79375 -0.656167,-1.19327 -0.230187,-0.39952 -0.473604,-0.80169 -0.709083,-1.18798 z m 0.73025,6.59342 q 0.341313,-0.60061 0.650875,-1.19857 c 0.264584,0.68792 0.529167,1.36525 0.714375,2.02671 -0.66675,0.15611 -1.367895,0.28311 -2.0955,0.38365 q 0.383646,-0.58738 0.740834,-1.21179 z m -4.71752,-9.74461 c 0.47625,0.508 0.944562,1.05834 1.402291,1.64836 -0.452437,-0.0185 -0.915458,-0.0318 -1.383771,-0.0318 -0.468312,0 -0.947208,0 -1.410229,0.0318 0.452438,-0.58738 0.915459,-1.14036 1.391709,-1.64836 z m -5.868459,-3.175 a 1.2752917,1.2752917 0 0 1 0.653521,-0.14816 3.4686875,3.4686875 0 0 1 1.373188,0.3466 10.337271,10.337271 0 0 1 2.645833,1.79387 l 0.309562,0.28311 a 26.058812,26.058812 0 0 0 -2.159,2.64583 26.162,26.162 0 0 0 -3.346979,0.54504 c -0.116416,-0.51329 -0.211666,-1.016 -0.264583,-1.50018 -0.275167,-1.99761 0.04233,-3.52161 0.785812,-3.95552 z m -1.399646,13.41438 a 15.544271,15.544271 0 0 1 -1.465791,-0.52917 c -1.878542,-0.79375 -3.042709,-1.8124 -3.042709,-2.68287 0,-0.87048 1.169459,-1.88384 3.045355,-2.66436 a 15.247937,15.247937 0 0 1 1.439333,-0.51329 25.910646,25.910646 0 0 0 1.2065,3.21204 26.119667,26.119667 0 0 0 -1.182688,3.17765 z m 6.085417,5.05354 c -2.166937,1.93939 -3.521604,2.14577 -4.005792,2.14577 a 1.2408958,1.2408958 0 0 1 -0.640291,-0.15346 c -0.756709,-0.43127 -1.058334,-1.95262 -0.817563,-3.96875 a 14.835187,14.835187 0 0 1 0.264584,-1.52929 26.328687,26.328687 0 0 0 3.328458,0.54504 25.709562,25.709562 0 0 0 2.180167,2.667 z m 1.209146,-1.19327 c -0.47625,-0.508 -0.944563,-1.05834 -1.404938,-1.64836 0.455084,0.0212 0.918105,0.0317 1.386417,0.0317 0.468313,0 0.947208,0 1.410229,-0.0291 -0.457729,0.58738 -0.923396,1.13771 -1.394354,1.64571 z m 5.868458,3.175 a 1.2752917,1.2752917 0 0 1 -0.656166,0.1561 c -0.481542,0 -1.852084,-0.21166 -4.011084,-2.14312 l -0.309562,-0.28311 a 26.045583,26.045583 0 0 0 2.156354,-2.64583 25.664583,25.664583 0 0 0 3.349625,-0.54504 c 0.116417,0.51329 0.209021,1.016 0.264583,1.50019 0.261938,1.99495 -0.04233,3.51895 -0.796396,3.95022 z m 2.8575,-7.52475 c -0.452437,0.18521 -0.931333,0.35719 -1.439333,0.51064 a 26.072042,26.072042 0 0 0 -1.209146,-3.21204 25.955625,25.955625 0 0 0 1.187979,-3.175 15.544271,15.544271 0 0 1 1.465792,0.52917 c 1.875896,0.79375 3.042708,1.81239 3.040062,2.68287 -0.0026,0.87048 -1.169458,1.87325 -3.048,2.65377 z m -8.752416,-0.26988 a 2.428875,2.428875 0 1 0 -2.42623,-2.43152 2.4262292,2.4262292 0 0 0 2.42623,2.43152 z M 50.224675,223.13009 v 29.27615 H 82.522363 V 223.13009 Z M 81.2603,251.14682 H 51.489384 V 224.39215 H 81.2603 Z m -22.489583,-8.96937 c -0.79375,3.35491 -0.449792,6.01927 1.132417,6.9215 a 2.4897292,2.4897292 0 0 0 1.264708,0.3175 c 1.476375,0 3.339042,-1.02923 5.220229,-2.80988 1.878542,1.76742 3.735917,2.79136 5.209646,2.79136 a 2.5373542,2.5373542 0 0 0 1.285875,-0.3228 c 1.571625,-0.90487 1.894417,-3.556 1.113896,-6.87916 3.283479,-0.98425 5.418666,-2.58763 5.421312,-4.40002 0.0026,-1.8124 -2.145771,-3.43959 -5.445125,-4.42648 0.79375,-3.35227 0.447146,-6.01927 -1.132416,-6.9215 a 2.5267708,2.5267708 0 0 0 -1.267355,-0.3175 c -1.473729,0 -3.336395,1.02923 -5.217583,2.80987 -1.881187,-1.76741 -3.738562,-2.79135 -5.209646,-2.79135 a 2.5029583,2.5029583 0 0 0 -1.285875,0.32279 c -1.571625,0.90487 -1.897062,3.556 -1.113896,6.8924 -3.283479,0.9816 -5.418666,2.58497 -5.423958,4.40002 -0.0053,1.81504 2.151063,3.4237 5.450417,4.41325 z m 6.405562,3.83381 c -2.166937,1.93939 -3.521604,2.14577 -4.005791,2.14577 a 1.2408958,1.2408958 0 0 1 -0.640292,-0.15346 c -0.756708,-0.43127 -1.058333,-1.95262 -0.817562,-3.96875 a 14.835187,14.835187 0 0 1 0.264583,-1.52929 26.328687,26.328687 0 0 0 3.328458,0.54504 25.709562,25.709562 0 0 0 2.180167,2.667 z m 6.559021,-9.76048 c -0.209021,-0.39688 -0.425979,-0.79375 -0.656166,-1.19327 -0.230188,-0.39952 -0.47625,-0.79375 -0.719667,-1.18798 0.719667,0.10054 1.415521,0.23019 2.074333,0.38365 -0.193146,0.65352 -0.425979,1.32291 -0.695854,1.9976 z m 0.719667,5.02708 c -0.66675,0.15611 -1.367896,0.28311 -2.0955,0.38365 q 0.373062,-0.58738 0.73025,-1.21179 0.357187,-0.62442 0.650875,-1.19857 c 0.277812,0.70115 0.518583,1.37319 0.709083,2.03994 z m -1.378479,-3.53218 c -0.325438,0.6932 -0.687917,1.38906 -1.0795,2.07697 -0.391584,0.68792 -0.822854,1.37055 -1.262063,2.01613 -0.769937,0.0609 -1.563687,0.09 -2.38125,0.09 -0.817562,0 -1.5875,-0.0344 -2.352146,-0.0952 -0.439208,-0.64029 -0.862541,-1.30704 -1.259416,-1.9976 -0.396875,-0.69057 -0.759354,-1.38113 -1.090084,-2.07169 q 0.492125,-1.03981 1.082146,-2.07963 c 0.396875,-0.69321 0.822854,-1.36789 1.262063,-2.01348 0.769937,-0.0582 1.563687,-0.09 2.38125,-0.0873 0.817562,0.003 1.5875,0.0318 2.352146,0.0926 0.439208,0.64029 0.859895,1.32292 1.25677,1.99761 0.396875,0.67468 0.764646,1.39435 1.09273,2.08491 z m -8.680979,3.937 c -0.717021,-0.10319 -1.412875,-0.23284 -2.074334,-0.3863 0.195792,-0.65087 0.431271,-1.32291 0.701146,-1.9976 0.206375,0.39687 0.425979,0.79375 0.653521,1.19327 0.227542,0.39952 0.455083,0.7911 0.719667,1.19063 z m -0.738188,-6.61459 c -0.230187,0.39688 -0.447146,0.79375 -0.650875,1.19592 q -0.415396,-1.02394 -0.727604,-2.01613 c 0.669396,-0.1561 1.370542,-0.28575 2.098146,-0.38629 -0.246063,0.39159 -0.481542,0.7964 -0.719667,1.2065 z m 4.73075,9.7499 c -0.47625,-0.508 -0.944562,-1.05834 -1.404937,-1.64836 0.455083,0.0212 0.918104,0.0317 1.386416,0.0317 0.468313,0 0.947209,0 1.410229,-0.0291 -0.455083,0.58738 -0.92075,1.13771 -1.391708,1.64571 z m 5.868458,3.175 a 1.2752917,1.2752917 0 0 1 -0.656166,0.1561 c -0.481542,0 -1.852084,-0.21166 -4.011084,-2.14312 l -0.309562,-0.28311 a 26.045583,26.045583 0 0 0 2.156354,-2.64583 25.664583,25.664583 0 0 0 3.349625,-0.54504 c 0.116417,0.51329 0.209021,1.016 0.264583,1.50019 0.264584,1.99495 -0.03969,3.51895 -0.79375,3.95022 z m 1.397,-13.40379 a 15.544271,15.544271 0 0 1 1.465792,0.52916 c 1.875896,0.79375 3.042708,1.8124 3.040063,2.68288 -0.0026,0.87048 -1.166813,1.89441 -3.045355,2.67494 -0.452437,0.1852 -0.931333,0.35718 -1.439333,0.51064 a 26.072042,26.072042 0 0 0 -1.209146,-3.21204 25.955625,25.955625 0 0 0 1.187979,-3.19617 z m -6.085416,-5.0509 c 2.166937,-1.9394 3.521604,-2.14842 4.003146,-2.14842 v 0 a 1.2461875,1.2461875 0 0 1 0.640291,0.15346 c 0.756709,0.43127 1.058334,1.95263 0.817563,3.96875 a 15.009812,15.009812 0 0 1 -0.264584,1.53194 25.849792,25.849792 0 0 0 -3.328458,-0.54769 26.053521,26.053521 0 0 0 -2.180167,-2.667 c 0.100542,-0.10848 0.206375,-0.20637 0.314855,-0.30162 z m -1.203854,1.18004 c 0.47625,0.508 0.944562,1.05834 1.402291,1.64836 -0.452437,-0.0185 -0.915458,-0.0318 -1.383771,-0.0318 -0.468312,0 -0.947208,0 -1.410229,0.0318 0.452438,-0.58738 0.915459,-1.14036 1.391709,-1.64836 z m -5.868459,-3.175 a 1.2752917,1.2752917 0 0 1 0.653521,-0.14816 3.4686875,3.4686875 0 0 1 1.373188,0.3466 10.337271,10.337271 0 0 1 2.645833,1.79387 l 0.309562,0.28311 a 26.058812,26.058812 0 0 0 -2.159,2.64583 26.162,26.162 0 0 0 -3.346979,0.54504 c -0.116416,-0.51329 -0.211666,-1.016 -0.264583,-1.50018 -0.275167,-1.99761 0.04233,-3.52161 0.785812,-3.95552 z m -2.862791,7.53798 a 15.247937,15.247937 0 0 1 1.439333,-0.51329 25.910646,25.910646 0 0 0 1.2065,3.21204 26.119667,26.119667 0 0 0 -1.187979,3.175 15.544271,15.544271 0 0 1 -1.465792,-0.52917 c -1.878542,-0.79375 -3.042708,-1.81239 -3.042708,-2.68287 0,-0.87048 1.17475,-1.88119 3.050646,-2.66171 z m 8.73125,0.26458 a 2.428875,2.428875 0 1 0 2.426229,2.43153 2.4262292,2.4262292 0 0 0 -2.426229,-2.44475 z m 0,0 a 2.428875,2.428875 0 1 0 2.426229,2.43153 2.4262292,2.4262292 0 0 0 -2.426229,-2.44475 z m 0,0 a 2.428875,2.428875 0 1 0 2.426229,2.43153 2.4262292,2.4262292 0 0 0 -2.426229,-2.44475 z m 13.057187,2.44475 c 0,-1.82297 -2.145771,-3.43958 -5.445125,-4.42647 0.79375,-3.35228 0.447146,-6.01928 -1.132417,-6.9215 a 2.5267708,2.5267708 0 0 0 -1.267354,-0.3175 c -1.473729,0 -3.336396,1.02922 -5.217583,2.80987 -1.881188,-1.76742 -3.738563,-2.79135 -5.209646,-2.79135 a 2.5029583,2.5029583 0 0 0 -1.285875,0.32279 c -1.571625,0.90487 -1.897062,3.556 -1.113896,6.89239 -3.283479,0.98161 -5.418666,2.58498 -5.423958,4.40002 -0.0053,1.81505 2.148417,3.43959 5.447771,4.42384 -0.79375,3.35491 -0.449792,6.01927 1.132416,6.9215 a 2.4897292,2.4897292 0 0 0 1.264709,0.3175 c 1.476375,0 3.339041,-1.02923 5.220229,-2.80988 1.878542,1.76742 3.735917,2.79136 5.209646,2.79136 a 2.5373542,2.5373542 0 0 0 1.285875,-0.32279 c 1.571625,-0.90488 1.894416,-3.556 1.113896,-6.87917 3.283479,-1.00013 5.418666,-2.6035 5.421312,-4.4159 z m -11.850687,-8.26293 c 2.166937,-1.9394 3.521604,-2.14842 4.003145,-2.14842 v 0 a 1.2461875,1.2461875 0 0 1 0.640292,0.15346 c 0.756708,0.43127 1.058333,1.95262 0.817563,3.96875 a 15.009812,15.009812 0 0 1 -0.264584,1.53194 25.849792,25.849792 0 0 0 -3.328458,-0.54769 26.053521,26.053521 0 0 0 -2.180167,-2.667 c 0.0979,-0.0979 0.203729,-0.19579 0.312209,-0.29104 z m -6.559021,9.75783 c 0.206375,0.39688 0.425979,0.79375 0.653521,1.19327 0.227541,0.39952 0.465666,0.80433 0.73025,1.20386 -0.717021,-0.10319 -1.412875,-0.23284 -2.074334,-0.3863 0.185209,-0.67204 0.420688,-1.3335 0.690563,-2.01083 z m -0.732896,-5.03767 c 0.669396,-0.1561 1.370542,-0.28575 2.098146,-0.38629 -0.264584,0.39159 -0.492125,0.79375 -0.73025,1.21444 -0.238125,0.42069 -0.447146,0.79375 -0.650875,1.19592 q -0.404813,-1.03188 -0.717021,-2.02407 z m 1.378479,3.52955 q 0.492125,-1.03982 1.082146,-2.07963 c 0.396875,-0.69321 0.822854,-1.3679 1.262062,-2.01348 0.769938,-0.0582 1.563688,-0.09 2.38125,-0.0873 0.817563,0.003 1.5875,0.0317 2.352146,0.0926 0.439209,0.64029 0.859896,1.32292 1.256771,1.99761 0.396875,0.67468 0.762,1.38112 1.090083,2.07168 -0.325437,0.69321 -0.687916,1.38907 -1.0795,2.07698 -0.391583,0.68792 -0.822854,1.37054 -1.262062,2.01613 -0.769938,0.0608 -1.563688,0.09 -2.38125,0.09 -0.817563,0 -1.5875,-0.0344 -2.352146,-0.0952 -0.439208,-0.64029 -0.862542,-1.30704 -1.259417,-1.99761 -0.396875,-0.69056 -0.74877,-1.38112 -1.0795,-2.07168 z m 8.694208,-3.9079 c 0.719667,0.10054 1.415521,0.23019 2.074334,0.38365 -0.195792,0.65352 -0.428625,1.32291 -0.6985,1.9976 -0.209021,-0.39688 -0.425979,-0.79375 -0.656167,-1.19327 -0.230187,-0.39952 -0.473604,-0.80169 -0.709083,-1.18798 z m 0.73025,6.59342 q 0.341313,-0.60061 0.650875,-1.19857 c 0.264584,0.68792 0.529167,1.36525 0.714375,2.02671 -0.66675,0.15611 -1.367895,0.28311 -2.0955,0.38365 q 0.383646,-0.58738 0.740834,-1.21179 z m -4.71752,-9.74461 c 0.47625,0.508 0.944562,1.05834 1.402291,1.64836 -0.452437,-0.0185 -0.915458,-0.0318 -1.383771,-0.0318 -0.468312,0 -0.947208,0 -1.410229,0.0318 0.452438,-0.58738 0.915459,-1.14036 1.391709,-1.64836 z m -5.868459,-3.175 a 1.2752917,1.2752917 0 0 1 0.653521,-0.14816 3.4686875,3.4686875 0 0 1 1.373188,0.3466 10.337271,10.337271 0 0 1 2.645833,1.79387 l 0.309562,0.28311 a 26.058812,26.058812 0 0 0 -2.159,2.64583 26.162,26.162 0 0 0 -3.346979,0.54504 c -0.116416,-0.51329 -0.211666,-1.016 -0.264583,-1.50018 -0.275167,-1.99761 0.04233,-3.52161 0.785812,-3.95552 z m -1.399646,13.41438 a 15.544271,15.544271 0 0 1 -1.465791,-0.52917 c -1.878542,-0.79375 -3.042709,-1.8124 -3.042709,-2.68287 0,-0.87048 1.169459,-1.88384 3.045355,-2.66436 a 15.247937,15.247937 0 0 1 1.439333,-0.51329 25.910646,25.910646 0 0 0 1.2065,3.21204 26.119667,26.119667 0 0 0 -1.182688,3.17765 z m 6.085417,5.05354 c -2.166937,1.93939 -3.521604,2.14577 -4.005792,2.14577 a 1.2408958,1.2408958 0 0 1 -0.640291,-0.15346 c -0.756709,-0.43127 -1.058334,-1.95262 -0.817563,-3.96875 a 14.835187,14.835187 0 0 1 0.264584,-1.52929 26.328687,26.328687 0 0 0 3.328458,0.54504 25.709562,25.709562 0 0 0 2.180167,2.667 z m 1.209146,-1.19327 c -0.47625,-0.508 -0.944563,-1.05834 -1.404938,-1.64836 0.455084,0.0212 0.918105,0.0317 1.386417,0.0317 0.468313,0 0.947208,0 1.410229,-0.0291 -0.457729,0.58738 -0.923396,1.13771 -1.394354,1.64571 z m 5.868458,3.175 a 1.2752917,1.2752917 0 0 1 -0.656166,0.1561 c -0.481542,0 -1.852084,-0.21166 -4.011084,-2.14312 l -0.309562,-0.28311 a 26.045583,26.045583 0 0 0 2.156354,-2.64583 25.664583,25.664583 0 0 0 3.349625,-0.54504 c 0.116417,0.51329 0.209021,1.016 0.264583,1.50019 0.261938,1.99495 -0.04233,3.51895 -0.796396,3.95022 z m 2.8575,-7.52475 c -0.452437,0.18521 -0.931333,0.35719 -1.439333,0.51064 a 26.072042,26.072042 0 0 0 -1.209146,-3.21204 25.955625,25.955625 0 0 0 1.187979,-3.175 15.544271,15.544271 0 0 1 1.465792,0.52917 c 1.875896,0.79375 3.042708,1.81239 3.040062,2.68287 -0.0026,0.87048 -1.169458,1.87325 -3.048,2.65377 z m -8.752416,-0.26988 a 2.428875,2.428875 0 1 0 -2.42623,-2.43152 2.4262292,2.4262292 0 0 0 2.42623,2.43152 z m -18.340917,14.41979 v -29.28672 l -1.267354,1.27 v 29.27879 h 32.292396 l 1.264708,-1.26207 z"
       class="cls-1"
       id="path13"
       style="stroke-width:0.264583" />
  </g>
</svg>
