<?xml version="1.0" encoding="UTF-8" standalone="no"?>
<svg
   width="31"
   height="41"
   fill="none"
   viewBox="0 0 62.511035 84"
   version="1.1"
   id="svg79"
   sodipodi:docname="formik.svg"
   inkscape:version="1.1.2 (b8e25be833, 2022-02-05)"
   xmlns:inkscape="http://www.inkscape.org/namespaces/inkscape"
   xmlns:sodipodi="http://sodipodi.sourceforge.net/DTD/sodipodi-0.dtd"
   xmlns="http://www.w3.org/2000/svg"
   xmlns:svg="http://www.w3.org/2000/svg">
  <defs
     id="defs83" />
  <sodipodi:namedview
     id="namedview81"
     pagecolor="#ffffff"
     bordercolor="#666666"
     borderopacity="1.0"
     inkscape:pageshadow="2"
     inkscape:pageopacity="0.0"
     inkscape:pagecheckerboard="0"
     showgrid="false"
     inkscape:zoom="12.895604"
     inkscape:cx="62.812101"
     inkscape:cy="20.472092"
     inkscape:window-width="2560"
     inkscape:window-height="1377"
     inkscape:window-x="-8"
     inkscape:window-y="-8"
     inkscape:window-maximized="1"
     inkscape:current-layer="svg79"
     width="181px" />
  <path
     fill="#172b4d"
     d="M 38.8688,0 48.5628,5.57462 10.3866,27.5283 0.692639,21.9536 Z"
     id="path51"
     style="stroke-width:1" />
  <path
     fill="#172b4d"
     d="M 48.9537,6.7450699 11.0179,28.5506 11.0166,39.5831 48.9525,17.7776 Z"
     id="path53"
     style="stroke-width:1" />
  <path
     fill="#172b4d"
     d="M 33.6985,28.275699 11.0976,41.2669 11.0964,52.2997 33.6972,39.3084 Z"
     id="path55"
     style="stroke-width:1" />
  <path
     fill="#172b4d"
     d="m 25.0346,45.7171 -13.9905,8.0421 -0.0013,11.033 13.9906,-8.042101 z"
     id="path57"
     style="stroke-width:1" />
  <path
     fill="#172b4d"
     d="M 0.00375833,23.0173 9.75474,28.622 9.75099,39.6571 0,34.0525 Z"
     id="path59"
     style="stroke-width:1" />
  <path
     fill="#172b4d"
     d="M 0.0965426,35.657399 9.72924,41.194099 9.72548,52.2292 0.0927843,46.6926 Z"
     id="path61"
     style="stroke-width:1" />
  <path
     fill="#172b4d"
     d="M 0.0922985,48.2214 9.72824,53.76 9.72423,65.523 0.0882924,59.9844 Z"
     id="path63"
     style="stroke-width:1" />
  <path
     fill="#172b4d"
     d="M 21.5645,84 11.8705,78.4254 49.6134,56.720899 59.3073,62.2955 Z"
     id="path65"
     style="stroke-width:1" />
  <path
     fill="#172b4d"
     d="M 11.102,77.4713 48.9809,55.6985 48.9821,44.665999 11.1032,66.438799 Z"
     id="path67"
     style="stroke-width:1" />
  <path
     fill="#172b4d"
     d="M 26.3002,55.973499 48.901,42.9822 48.9023,31.9495 26.3014,44.940699 Z"
     id="path69"
     style="stroke-width:1" />
  <path
     fill="#172b4d"
     d="M 34.9641,38.532 48.9546,30.4899 48.9558,19.457 34.9653,27.4991 Z"
     id="path71"
     style="stroke-width:1" />
  <path
     fill="#172b4d"
     d="M 59.9962,61.3058 50.2453,55.7012 50.249,44.665999 60,50.2706 Z"
     id="path73"
     style="stroke-width:1" />
  <path
     fill="#172b4d"
     d="m 59.9041,48.594699 -9.6327,-5.5367 0.0037,-11.035099 9.6327,5.5366 z"
     id="path75"
     style="stroke-width:1" />
  <path
     fill="#172b4d"
     d="m 59.9077,36.0307 -9.636,-5.5386 0.0039,-11.5516 9.636,5.5385 z"
     id="path77"
     style="stroke-width:1" />
</svg>
